<mxfile host='65bd71144e'>
    <diagram id='I1Ua6_mYZMSBJ3Qb7i93' name='Page-1'>
        <mxGraphModel dx='512' dy='352' grid='1' gridSize='10' guides='1' tooltips='1' connect='1' arrows='1' fold='1' page='1' pageScale='1' pageWidth='827' pageHeight='1169' math='0' shadow='0'>
            <root>
                <mxCell id='0'/>
                <mxCell id='1' parent='0'/>
                <mxCell id='5' style='edgeStyle=none;html=1;entryX=0;entryY=0.5;entryDx=0;entryDy=0;exitX=1.008;exitY=0.383;exitDx=0;exitDy=0;exitPerimeter=0;' edge='1' parent='1' source='2' target='4'>
                    <mxGeometry relative='1' as='geometry'/>
                </mxCell>
                <mxCell id='2' value='loader' style='rounded=1;whiteSpace=wrap;html=1;' vertex='1' parent='1'>
                    <mxGeometry x='160' y='140' width='120' height='60' as='geometry'/>
                </mxCell>
                <mxCell id='6' style='edgeStyle=none;html=1;exitX=1;exitY=0.5;exitDx=0;exitDy=0;entryX=0;entryY=0.5;entryDx=0;entryDy=0;' edge='1' parent='1' source='3' target='4'>
                    <mxGeometry relative='1' as='geometry'>
                        <mxPoint x='350' y='220' as='targetPoint'/>
                    </mxGeometry>
                </mxCell>
                <mxCell id='3' value='transformData' style='rounded=1;whiteSpace=wrap;html=1;' vertex='1' parent='1'>
                    <mxGeometry x='160' y='240' width='120' height='60' as='geometry'/>
                </mxCell>
                <mxCell id='8' style='edgeStyle=none;html=1;' edge='1' parent='1' source='4' target='7'>
                    <mxGeometry relative='1' as='geometry'/>
                </mxCell>
                <mxCell id='4' value='dsLoader' style='rounded=1;whiteSpace=wrap;html=1;' vertex='1' parent='1'>
                    <mxGeometry x='354' y='190' width='120' height='60' as='geometry'/>
                </mxCell>
                <mxCell id='9' style='edgeStyle=none;html=1;exitX=1;exitY=0.5;exitDx=0;exitDy=0;' edge='1' parent='1' source='7'>
                    <mxGeometry relative='1' as='geometry'>
                        <mxPoint x='690' y='220' as='targetPoint'/>
                    </mxGeometry>
                </mxCell>
                <mxCell id='7' value='training' style='rounded=1;whiteSpace=wrap;html=1;' vertex='1' parent='1'>
                    <mxGeometry x='530' y='190' width='120' height='60' as='geometry'/>
                </mxCell>
                <mxCell id='11' value='' style='edgeStyle=none;html=1;exitX=0.5;exitY=1;exitDx=0;exitDy=0;' edge='1' parent='1' source='10' target='7'>
                    <mxGeometry relative='1' as='geometry'>
                        <mxPoint x='700' y='220' as='sourcePoint'/>
                        <Array as='points'>
                            <mxPoint x='750' y='310'/>
                            <mxPoint x='590' y='310'/>
                        </Array>
                    </mxGeometry>
                </mxCell>
                <mxCell id='10' value='testing' style='rounded=1;whiteSpace=wrap;html=1;' vertex='1' parent='1'>
                    <mxGeometry x='690' y='190' width='120' height='60' as='geometry'/>
                </mxCell>
                <mxCell id='13' style='edgeStyle=none;html=1;exitX=0.5;exitY=1;exitDx=0;exitDy=0;exitPerimeter=0;entryX=0.5;entryY=0;entryDx=0;entryDy=0;' edge='1' parent='1' source='12' target='7'>
                    <mxGeometry relative='1' as='geometry'/>
                </mxCell>
                <mxCell id='12' value='Model' style='shape=cylinder3;whiteSpace=wrap;html=1;boundedLbl=1;backgroundOutline=1;size=15;' vertex='1' parent='1'>
                    <mxGeometry x='560' y='90' width='60' height='80' as='geometry'/>
                </mxCell>
            </root>
        </mxGraphModel>
    </diagram>
</mxfile>